<svg width="29" height="28" viewBox="0 0 29 28" fill="none" xmlns="http://www.w3.org/2000/svg">
<rect x="0.5" width="28" height="28" rx="14" fill="#5865F2"/>
<g clip-path="url(#clip0_2014_32763)">
<path d="M19.3516 9.42412C18.4593 9.01469 17.5024 8.71305 16.5019 8.54027C16.4837 8.53694 16.4655 8.54527 16.4562 8.56194C16.3331 8.78082 16.1967 9.06636 16.1013 9.29079C15.0252 9.12969 13.9547 9.12969 12.9007 9.29079C12.8052 9.06137 12.6639 8.78082 12.5403 8.56194C12.5309 8.54583 12.5127 8.5375 12.4945 8.54027C11.4946 8.71249 10.5377 9.01415 9.64488 9.42412C9.63715 9.42746 9.63053 9.43302 9.62613 9.44024C7.81115 12.1518 7.31395 14.7967 7.55786 17.4088C7.55896 17.4216 7.56613 17.4338 7.57607 17.4416C8.77354 18.321 9.9335 18.8548 11.0719 19.2087C11.0901 19.2143 11.1094 19.2076 11.121 19.1926C11.3903 18.8248 11.6304 18.4371 11.8362 18.0293C11.8483 18.0054 11.8367 17.9771 11.8119 17.9676C11.4312 17.8232 11.0686 17.6471 10.7198 17.4471C10.6923 17.431 10.69 17.3915 10.7154 17.3726C10.7888 17.3177 10.8622 17.2605 10.9323 17.2026C10.945 17.1921 10.9627 17.1899 10.9776 17.1966C13.2687 18.2426 15.7492 18.2426 18.0134 17.1966C18.0283 17.1893 18.046 17.1916 18.0592 17.2021C18.1293 17.2599 18.2027 17.3177 18.2766 17.3726C18.302 17.3915 18.3004 17.431 18.2728 17.4471C17.924 17.651 17.5615 17.8232 17.1801 17.9671C17.1553 17.9766 17.1443 18.0054 17.1564 18.0293C17.3667 18.4365 17.6067 18.8243 17.871 19.192C17.8821 19.2076 17.9019 19.2143 17.9201 19.2087C19.0641 18.8548 20.224 18.321 21.4215 17.4416C21.432 17.4338 21.4386 17.4221 21.4397 17.4093C21.7316 14.3895 20.9508 11.7662 19.3698 9.44079C19.3659 9.43302 19.3593 9.42746 19.3516 9.42412ZM12.1783 15.8183C11.4885 15.8183 10.9202 15.185 10.9202 14.4073C10.9202 13.6295 11.4775 12.9962 12.1783 12.9962C12.8847 12.9962 13.4476 13.635 13.4365 14.4073C13.4365 15.185 12.8792 15.8183 12.1783 15.8183ZM16.8302 15.8183C16.1405 15.8183 15.5721 15.185 15.5721 14.4073C15.5721 13.6295 16.1294 12.9962 16.8302 12.9962C17.5366 12.9962 18.0995 13.635 18.0884 14.4073C18.0884 15.185 17.5366 15.8183 16.8302 15.8183Z" fill="white"/>
</g>
<defs>
<clipPath id="clip0_2014_32763">
<rect width="14" height="14" fill="white" transform="translate(7.5 7)"/>
</clipPath>
</defs>
</svg>
