<svg width="18" height="18" viewBox="0 0 18 18" fill="none" xmlns="http://www.w3.org/2000/svg">
<path d="M5.07 4.00498L3.72 2.66248L2.6625 3.71998L4.005 5.06248L5.07 4.00498ZM0.75 8.24997H3V9.74998H0.75V8.24997ZM8.25 0.787476H9.75V2.99998H8.25V0.787476ZM14.28 2.65873L15.336 3.71398L13.9935 5.05648L12.9382 4.00048L14.28 2.65873ZM12.93 13.995L14.2725 15.345L15.33 14.2875L13.98 12.945L12.93 13.995ZM15 8.24997H17.25V9.74998H15V8.24997ZM9 4.49998C6.5175 4.49998 4.5 6.51748 4.5 8.99998C4.5 11.4825 6.5175 13.5 9 13.5C11.4825 13.5 13.5 11.4825 13.5 8.99998C13.5 6.51748 11.4825 4.49998 9 4.49998ZM9 12C7.3425 12 6 10.6575 6 8.99998C6 7.34247 7.3425 5.99998 9 5.99998C10.6575 5.99998 12 7.34247 12 8.99998C12 10.6575 10.6575 12 9 12ZM8.25 15H9.75V17.2125H8.25V15ZM2.6625 14.28L3.72 15.3375L5.0625 13.9875L4.005 12.93L2.6625 14.28Z" fill="#D89614"/>
</svg>
