<svg width="29" height="28" viewBox="0 0 29 28" fill="none" xmlns="http://www.w3.org/2000/svg">
<rect x="0.5" width="28" height="28" rx="14" fill="black"/>
<g clip-path="url(#clip0_2014_32774)">
<path d="M15.3968 13.8995C15.3968 16.099 13.629 17.8822 11.4485 17.8822C9.26793 17.8822 7.5 16.0986 7.5 13.8995C7.5 11.7003 9.26779 9.91663 11.4485 9.91663C13.6292 9.91663 15.3968 11.6999 15.3968 13.8995Z" fill="white"/>
<path d="M19.7283 13.8995C19.7283 15.97 18.8444 17.6491 17.7541 17.6491C16.6637 17.6491 15.7798 15.97 15.7798 13.8995C15.7798 11.8291 16.6636 10.15 17.7539 10.15C18.8443 10.15 19.7282 11.8286 19.7282 13.8995" fill="white"/>
<path d="M21.5 13.8995C21.5 15.7541 21.1892 17.2585 20.8057 17.2585C20.4221 17.2585 20.1114 15.7545 20.1114 13.8995C20.1114 12.0445 20.4223 10.5405 20.8057 10.5405C21.1891 10.5405 21.5 12.0444 21.5 13.8995Z" fill="white"/>
</g>
<defs>
<clipPath id="clip0_2014_32774">
<rect width="14" height="14" fill="white" transform="translate(7.5 7)"/>
</clipPath>
</defs>
</svg>
