<svg width="16" height="16" viewBox="0 0 16 16" fill="none" xmlns="http://www.w3.org/2000/svg">
<g clip-path="url(#clip0_1161_30002)">
<path d="M15.1346 0.531494L8.94005 5.18906L10.0856 2.44116L15.1346 0.531494Z" fill="#E2761B" stroke="#E2761B" stroke-width="0.0622568" stroke-linecap="round" stroke-linejoin="round"/>
<path d="M0.834274 0.531494L6.97902 5.23317L5.88953 2.44116L0.834274 0.531494Z" fill="#E4761B" stroke="#E4761B" stroke-width="0.0622568" stroke-linecap="round" stroke-linejoin="round"/>
<path d="M12.9058 11.3276L11.256 13.8865L14.786 14.8697L15.8008 11.3844L12.9058 11.3276Z" fill="#E4761B" stroke="#E4761B" stroke-width="0.0622568" stroke-linecap="round" stroke-linejoin="round"/>
<path d="M0.180573 11.3844L1.18913 14.8697L4.71909 13.8865L3.06929 11.3276L0.180573 11.3844Z" fill="#E4761B" stroke="#E4761B" stroke-width="0.0622568" stroke-linecap="round" stroke-linejoin="round"/>
<path d="M4.51987 7.00402L3.53621 8.51032L7.04127 8.66788L6.91675 4.85486L4.51987 7.00402Z" fill="#E4761B" stroke="#E4761B" stroke-width="0.0622568" stroke-linecap="round" stroke-linejoin="round"/>
<path d="M11.4491 7.00407L9.02106 4.81079L8.94012 8.66793L12.439 8.51037L11.4491 7.00407Z" fill="#E4761B" stroke="#E4761B" stroke-width="0.0622568" stroke-linecap="round" stroke-linejoin="round"/>
<path d="M4.71909 13.8864L6.82337 12.8465L5.00547 11.4095L4.71909 13.8864Z" fill="#E4761B" stroke="#E4761B" stroke-width="0.0622568" stroke-linecap="round" stroke-linejoin="round"/>
<path d="M9.14552 12.8465L11.256 13.8864L10.9634 11.4095L9.14552 12.8465Z" fill="#E4761B" stroke="#E4761B" stroke-width="0.0622568" stroke-linecap="round" stroke-linejoin="round"/>
<path d="M11.256 13.8865L9.14552 12.8466L9.31362 14.2394L9.29494 14.8255L11.256 13.8865Z" fill="#D7C1B3" stroke="#D7C1B3" stroke-width="0.0622568" stroke-linecap="round" stroke-linejoin="round"/>
<path d="M4.71907 13.8865L6.68016 14.8255L6.66771 14.2394L6.82335 12.8466L4.71907 13.8865Z" fill="#D7C1B3" stroke="#D7C1B3" stroke-width="0.0622568" stroke-linecap="round" stroke-linejoin="round"/>
<path d="M6.71127 10.4895L4.95563 9.96635L6.19454 9.39282L6.71127 10.4895Z" fill="#233447" stroke="#233447" stroke-width="0.0622568" stroke-linecap="round" stroke-linejoin="round"/>
<path d="M9.2576 10.4895L9.77433 9.39282L11.0195 9.96635L9.2576 10.4895Z" fill="#233447" stroke="#233447" stroke-width="0.0622568" stroke-linecap="round" stroke-linejoin="round"/>
<path d="M4.71905 13.8863L5.01788 11.3275L3.06924 11.3842L4.71905 13.8863Z" fill="#CD6116" stroke="#CD6116" stroke-width="0.0622568" stroke-linecap="round" stroke-linejoin="round"/>
<path d="M10.9572 11.3275L11.256 13.8863L12.9059 11.3842L10.9572 11.3275Z" fill="#CD6116" stroke="#CD6116" stroke-width="0.0622568" stroke-linecap="round" stroke-linejoin="round"/>
<path d="M12.4389 8.51038L8.94006 8.66794L9.2638 10.4894L9.78053 9.39273L11.0257 9.96626L12.4389 8.51038Z" fill="#CD6116" stroke="#CD6116" stroke-width="0.0622568" stroke-linecap="round" stroke-linejoin="round"/>
<path d="M4.95566 9.96626L6.2008 9.39273L6.71131 10.4894L7.04127 8.66794L3.53621 8.51038L4.95566 9.96626Z" fill="#CD6116" stroke="#CD6116" stroke-width="0.0622568" stroke-linecap="round" stroke-linejoin="round"/>
<path d="M3.53619 8.51038L5.00545 11.4095L4.95565 9.96626L3.53619 8.51038Z" fill="#E4751F" stroke="#E4751F" stroke-width="0.0622568" stroke-linecap="round" stroke-linejoin="round"/>
<path d="M11.0257 9.96626L10.9634 11.4095L12.4389 8.51038L11.0257 9.96626Z" fill="#E4751F" stroke="#E4751F" stroke-width="0.0622568" stroke-linecap="round" stroke-linejoin="round"/>
<path d="M7.04128 8.66785L6.71132 10.4893L7.12221 12.6384L7.2156 9.8086L7.04128 8.66785Z" fill="#E4751F" stroke="#E4751F" stroke-width="0.0622568" stroke-linecap="round" stroke-linejoin="round"/>
<path d="M8.94007 8.66785L8.77197 9.8023L8.84668 12.6384L9.2638 10.4893L8.94007 8.66785Z" fill="#E4751F" stroke="#E4751F" stroke-width="0.0622568" stroke-linecap="round" stroke-linejoin="round"/>
<path d="M9.2638 10.4894L8.84668 12.6386L9.14551 12.8466L10.9634 11.4096L11.0257 9.96631L9.2638 10.4894Z" fill="#F6851B" stroke="#F6851B" stroke-width="0.0622568" stroke-linecap="round" stroke-linejoin="round"/>
<path d="M4.95563 9.96631L5.00543 11.4096L6.82333 12.8466L7.12216 12.6386L6.71127 10.4894L4.95563 9.96631Z" fill="#F6851B" stroke="#F6851B" stroke-width="0.0622568" stroke-linecap="round" stroke-linejoin="round"/>
<path d="M9.29495 14.8255L9.31362 14.2394L9.15798 14.1008H6.8109L6.66771 14.2394L6.68016 14.8255L4.71907 13.8865L5.4039 14.4537L6.79222 15.4306H9.17666L10.5712 14.4537L11.256 13.8865L9.29495 14.8255Z" fill="#C0AD9E" stroke="#C0AD9E" stroke-width="0.0622568" stroke-linecap="round" stroke-linejoin="round"/>
<path d="M9.14551 12.8465L8.84668 12.6385H7.12217L6.82334 12.8465L6.66769 14.2394L6.81088 14.1007H9.15797L9.31361 14.2394L9.14551 12.8465Z" fill="#161616" stroke="#161616" stroke-width="0.0622568" stroke-linecap="round" stroke-linejoin="round"/>
<path d="M15.3961 5.49158L15.9253 2.92015L15.1346 0.531494L9.14551 5.03149L11.449 7.00418L14.705 7.96847L15.4272 7.11763L15.1159 6.89074L15.614 6.43065L15.228 6.12813L15.7261 5.74368L15.3961 5.49158Z" fill="#763D16" stroke="#763D16" stroke-width="0.0622568" stroke-linecap="round" stroke-linejoin="round"/>
<path d="M0.0498047 2.92015L0.578988 5.49158L0.242801 5.74368L0.740855 6.12813L0.361089 6.43065L0.859143 6.89074L0.547859 7.11763L1.26381 7.96847L4.51984 7.00418L6.82335 5.03149L0.834241 0.531494L0.0498047 2.92015Z" fill="#763D16" stroke="#763D16" stroke-width="0.0622568" stroke-linecap="round" stroke-linejoin="round"/>
<path d="M14.7051 7.96844L11.449 7.00415L12.4389 8.51045L10.9634 11.4096L12.9059 11.3844H15.8008L14.7051 7.96844Z" fill="#F6851B" stroke="#F6851B" stroke-width="0.0622568" stroke-linecap="round" stroke-linejoin="round"/>
<path d="M4.51986 7.00415L1.26383 7.96844L0.180557 11.3844H3.06927L5.00546 11.4096L3.5362 8.51045L4.51986 7.00415Z" fill="#F6851B" stroke="#F6851B" stroke-width="0.0622568" stroke-linecap="round" stroke-linejoin="round"/>
<path d="M8.94007 8.66805L9.14551 5.0315L10.0918 2.44116H5.88948L6.82333 5.0315L7.04123 8.66805L7.11594 9.81511L7.12217 12.6386H8.84668L8.85913 9.81511L8.94007 8.66805Z" fill="#F6851B" stroke="#F6851B" stroke-width="0.0622568" stroke-linecap="round" stroke-linejoin="round"/>
</g>
<defs>
<clipPath id="clip0_1161_30002">
<rect width="16" height="15" fill="white" transform="translate(0 0.5)"/>
</clipPath>
</defs>
</svg>
