<?xml version="1.0" standalone="no"?>
<!DOCTYPE svg PUBLIC "-//W3C//DTD SVG 20010904//EN"
 "http://www.w3.org/TR/2001/REC-SVG-20010904/DTD/svg10.dtd">
<svg version="1.0" xmlns="http://www.w3.org/2000/svg"
 width="700.000000pt" height="700.000000pt" viewBox="0 0 700.000000 700.000000"
 preserveAspectRatio="xMidYMid meet">
<metadata>
Created by potrace 1.14, written by Peter Selinger 2001-2017
</metadata>
<g transform="translate(0.000000,700.000000) scale(0.100000,-0.100000)"
fill="#000000" stroke="none">
<path d="M2630 6780 l0 -220 869 0 869 0 6 23 c3 12 6 111 6 220 l0 197 -875
0 -875 0 0 -220z"/>
<path d="M1750 6345 l0 -215 435 0 435 0 0 215 0 215 -435 0 -435 0 0 -215z"/>
<path d="M4380 6340 l0 -220 430 0 430 0 0 -428 c0 -320 3 -431 12 -440 9 -9
72 -12 220 -12 l208 0 0 -1740 0 -1740 -208 0 c-148 0 -211 -3 -220 -12 -9 -9
-12 -120 -12 -440 l0 -428 -432 -2 -433 -3 -3 -212 -2 -213 -870 0 -870 0 -2
213 -3 212 -437 3 -438 2 0 435 0 435 -220 0 -220 0 0 1750 0 1750 218 2 217
3 3 433 2 432 -217 -2 -218 -3 -3 -432 -2 -433 -215 0 -215 0 0 -1750 0 -1750
215 0 215 0 0 -434 c0 -386 2 -435 16 -440 9 -3 108 -6 220 -6 l204 0 0 -215
0 -215 434 0 c386 0 435 -2 440 -16 3 -9 6 -108 6 -220 l0 -204 875 0 875 0 0
220 0 220 435 0 435 0 2 218 3 217 218 3 217 2 0 435 0 435 214 0 c186 0 215
2 220 16 8 20 8 3448 0 3468 -5 14 -34 16 -220 16 l-214 0 0 435 0 435 -204 0
c-112 0 -211 3 -220 6 -14 5 -16 34 -16 220 l0 214 -435 0 -435 0 0 -220z"/>
<path d="M3936 5234 c-3 -8 -6 -796 -6 -1750 l0 -1734 -432 -2 -433 -3 0 -215
0 -215 435 0 435 0 3 217 2 218 218 2 217 3 0 1745 0 1745 -216 3 c-191 2
-217 0 -223 -14z"/>
</g>
</svg>
