<svg width="29" height="28" viewBox="0 0 29 28" fill="none" xmlns="http://www.w3.org/2000/svg">
<rect x="0.5" width="28" height="28" rx="14" fill="#229ED9"/>
<path d="M20.4184 8.83451C20.2084 8.65643 19.8785 8.63095 19.5375 8.76787H19.5369C19.1782 8.91179 9.38383 13.1129 8.98511 13.2845C8.91259 13.3097 8.27923 13.5461 8.34447 14.0725C8.40271 14.5471 8.91175 14.7436 8.97391 14.7663L11.464 15.6189C11.6292 16.1688 12.2382 18.1977 12.3728 18.6311C12.4568 18.9013 12.5938 19.2564 12.8337 19.3295C13.0443 19.4107 13.2537 19.3365 13.3892 19.2301L14.9116 17.818L17.3692 19.7346L17.4277 19.7696C17.5946 19.8435 17.7544 19.8805 17.907 19.8805C18.0249 19.8805 18.138 19.8584 18.2461 19.8141C18.6143 19.6629 18.7616 19.3121 18.777 19.2723L20.6127 9.73079C20.7247 9.22119 20.569 8.96191 20.4184 8.83451ZM13.66 15.9599L12.82 18.1999L11.98 15.3999L18.42 10.6399L13.66 15.9599Z" fill="white"/>
</svg>
