<svg width="24" height="24" viewBox="0 0 24 24" fill="none" xmlns="http://www.w3.org/2000/svg">
<path d="M22.1457 3.14499C21.7857 2.83971 21.2203 2.79603 20.6356 3.03075H20.6347C20.0198 3.27747 3.2294 10.4794 2.54588 10.7736C2.42156 10.8168 1.3358 11.2219 1.44764 12.1243C1.54748 12.9379 2.42012 13.2749 2.52668 13.3138L6.79532 14.7754C7.07852 15.7181 8.12252 19.1962 8.3534 19.9392C8.4974 20.4024 8.73212 21.0111 9.14348 21.1363C9.50444 21.2755 9.86348 21.1483 10.0958 20.9659L12.7056 18.5453L16.9185 21.8309L17.0188 21.8909C17.3049 22.0176 17.579 22.081 17.8406 22.081C18.0427 22.081 18.2366 22.0431 18.4219 21.9672C19.0531 21.708 19.3056 21.1066 19.332 21.0384L22.4788 4.68147C22.6708 3.80787 22.404 3.36339 22.1457 3.14499ZM10.56 15.36L9.11996 19.2L7.67996 14.4L18.72 6.24003L10.56 15.36Z" fill="#229ED9"/>
</svg>
