<svg width="29" height="28" viewBox="0 0 29 28" fill="none" xmlns="http://www.w3.org/2000/svg">
<rect x="0.5" width="28" height="28" rx="14" fill="black"/>
<path d="M21.0355 12.6601C19.7008 12.6601 18.4651 12.236 17.4559 11.5152V16.7545C17.4559 19.3754 15.3302 21.5 12.708 21.5C11.7297 21.5 10.8203 21.2043 10.0649 20.6974C8.79564 19.8455 7.95996 18.3972 7.95996 16.7544C7.95996 14.1337 10.0857 12.0091 12.7081 12.0091C12.926 12.009 13.1437 12.0238 13.3596 12.0533V12.635L13.3595 14.678C13.1517 14.6121 12.9301 14.5763 12.7003 14.5763C11.5007 14.5763 10.5285 15.5483 10.5285 16.747C10.5285 17.5946 11.0145 18.3286 11.7232 18.6861C12.017 18.8342 12.3489 18.9177 12.7003 18.9177C13.8974 18.9177 14.868 17.9497 14.8722 16.7544V6.5H17.4559V6.83022C17.465 6.92894 17.4781 7.02729 17.4952 7.12499C17.6746 8.14728 18.2861 9.02071 19.135 9.55014C19.705 9.90577 20.3637 10.0938 21.0356 10.0928L21.0355 12.6601Z" fill="white"/>
</svg>
