<svg width="29" height="28" viewBox="0 0 29 28" fill="none" xmlns="http://www.w3.org/2000/svg">
<rect x="0.5" width="28" height="28" rx="14" fill="#1DA1F2"/>
<g clip-path="url(#clip0_2014_32766)">
<path d="M11.9027 19.6879C17.1858 19.6879 20.0754 15.3109 20.0754 11.5152C20.0754 11.3909 20.0754 11.2671 20.067 11.1439C20.6291 10.7373 21.1144 10.2339 21.5 9.65714C20.9758 9.88955 20.4197 10.0419 19.8502 10.1091C20.4499 9.75013 20.8987 9.18552 21.113 8.52034C20.5492 8.85495 19.9323 9.09074 19.2891 9.21754C18.856 8.75704 18.2833 8.45212 17.6594 8.34994C17.0356 8.24777 16.3955 8.35404 15.8382 8.65232C15.2808 8.95061 14.8373 9.42426 14.5762 9.99999C14.3153 10.5757 14.2512 11.2214 14.3942 11.8372C13.2522 11.7799 12.135 11.4832 11.1152 10.9661C10.0953 10.4491 9.19561 9.72344 8.4744 8.83618C8.10709 9.46851 7.99459 10.2171 8.15981 10.9294C8.32503 11.6418 8.75553 12.2644 9.36368 12.6705C8.90655 12.6571 8.45938 12.5338 8.06 12.311V12.3474C8.06018 13.0106 8.28975 13.6532 8.70976 14.1664C9.12977 14.6796 9.71437 15.0318 10.3644 15.1631C9.94153 15.2784 9.49784 15.2953 9.06744 15.2124C9.25106 15.783 9.60842 16.2821 10.0896 16.6397C10.5707 16.9974 11.1516 17.1957 11.751 17.2071C11.1554 17.6752 10.4734 18.0213 9.74401 18.2256C9.01458 18.4299 8.25204 18.4883 7.5 18.3976C8.81357 19.2406 10.342 19.6877 11.9027 19.6856" fill="white"/>
</g>
<defs>
<clipPath id="clip0_2014_32766">
<rect width="14" height="14" fill="white" transform="translate(7.5 7)"/>
</clipPath>
</defs>
</svg>
