<svg width="29" height="28" viewBox="0 0 29 28" fill="none" xmlns="http://www.w3.org/2000/svg">
<rect x="0.5" width="28" height="28" rx="14" fill="#FF0000"/>
<g clip-path="url(#clip0_2014_32769)">
<path fill-rule="evenodd" clip-rule="evenodd" d="M19.9695 9.29868C20.5722 9.46331 21.0459 9.94661 21.2073 10.5616C21.4988 11.6752 21.5 14 21.5 14C21.5 14 21.5 16.3248 21.2073 17.4384C21.0459 18.0534 20.5722 18.5367 19.9695 18.7013C18.8782 19 14.5 19 14.5 19C14.5 19 10.1218 19 9.03045 18.7013C8.42773 18.5367 7.95407 18.0534 7.79272 17.4384C7.5 16.3248 7.5 14 7.5 14C7.5 14 7.5 11.6752 7.79272 10.5616C7.95407 9.94661 8.42773 9.46331 9.03045 9.29868C10.1218 9 14.5 9 14.5 9C14.5 9 18.8782 9 19.9695 9.29868ZM16.7358 14.0002L13.0986 16.1427V11.8577L16.7358 14.0002Z" fill="white"/>
</g>
<defs>
<clipPath id="clip0_2014_32769">
<rect width="14" height="14" fill="white" transform="translate(7.5 7)"/>
</clipPath>
</defs>
</svg>
